<svg xmlns="http://www.w3.org/2000/svg" version="1.1" viewBox="-5.0 -10.0 110.0 135.0">
 <path  d="m41.758 80.996c9.9883 0 19.027-4.0469 25.57-10.594 6.543-6.543 10.594-15.586 10.594-25.57 0-9.9883-4.0469-19.027-10.594-25.57-6.543-6.543-15.586-10.594-25.57-10.594-9.9883 0-19.027 4.0469-25.57 10.594-6.543 6.543-10.594 15.586-10.594 25.57 0 9.9883 4.0469 19.027 10.594 25.57 6.543 6.543 15.586 10.594 25.57 10.594zm-13.805-36.164c0-1.793-0.73047-3.418-1.9023-4.5938s-2.8008-1.9023-4.5938-1.9023-3.418 0.72656-4.5938 1.9023-1.9023 2.8008-1.9023 4.5938 0.73047 3.418 1.9023 4.5938c1.1758 1.1758 2.8008 1.9023 4.5938 1.9023s3.418-0.72656 4.5938-1.9023 1.9023-2.8008 1.9023-4.5938zm1.3438-7.8398c2.0078 2.0078 3.25 4.7773 3.25 7.8398 0 3.0586-1.2422 5.832-3.25 7.8398s-4.7773 3.2461-7.8398 3.2461c-3.0586 0-5.832-1.2383-7.8398-3.2461-2.0078-2.0078-3.25-4.7773-3.25-7.8398s1.2422-5.8359 3.25-7.8398c2.0078-2.0078 4.7773-3.25 7.8398-3.25 3.0586 0 5.832 1.2422 7.8398 3.25zm12.461 21.645c-1.793 0-3.418 0.72656-4.5938 1.9023-1.1758 1.1758-1.9023 2.8008-1.9023 4.5938 0 1.793 0.72656 3.418 1.9023 4.5938 1.1758 1.1758 2.8008 1.9023 4.5938 1.9023 1.793 0 3.418-0.72656 4.5938-1.9023 1.1758-1.1758 1.9023-2.8008 1.9023-4.5938 0-1.793-0.73047-3.418-1.9023-4.5938-1.1719-1.1758-2.8008-1.9023-4.5938-1.9023zm-7.8398-1.3438c2.0078-2.0078 4.7773-3.25 7.8398-3.25 3.0586 0 5.8359 1.2422 7.8398 3.25 2.0078 2.0078 3.25 4.7773 3.25 7.8398 0 3.0586-1.2422 5.832-3.25 7.8398-2.0078 2.0078-4.7773 3.25-7.8398 3.25-3.0586 0-5.832-1.2422-7.8398-3.25-2.0078-2.0078-3.25-4.7773-3.25-7.8398s1.2422-5.8359 3.25-7.8398zm17.051-12.461c0-3.0625 1.2422-5.8359 3.25-7.8398 2.0078-2.0078 4.7773-3.25 7.8398-3.25 3.0586 0 5.8359 1.2422 7.8398 3.25 2.0078 2.0078 3.25 4.7773 3.25 7.8398 0 3.0586-1.2422 5.832-3.25 7.8398-2.0078 2.0078-4.7773 3.2461-7.8398 3.2461-3.0586 0-5.832-1.2383-7.8398-3.2461s-3.25-4.7773-3.25-7.8398zm6.4961-4.5938c-1.1758 1.1758-1.9023 2.8008-1.9023 4.5938s0.72656 3.418 1.9023 4.5938c1.1758 1.1758 2.8008 1.9023 4.5938 1.9023 1.793 0 3.418-0.72656 4.5938-1.9023 1.1719-1.1758 1.9023-2.8008 1.9023-4.5938s-0.73047-3.418-1.9023-4.5938c-1.1758-1.1758-2.8008-1.9023-4.5938-1.9023-1.793 0-3.418 0.72656-4.5938 1.9023zm-15.707-4.6211c-3.0586 0-5.832-1.2422-7.8398-3.25-2.0078-2.0078-3.25-4.7773-3.25-7.8398 0-3.0586 1.2422-5.832 3.25-7.8398 2.0078-2.0078 4.7773-3.25 7.8398-3.25 3.0586 0 5.8359 1.2422 7.8398 3.25 2.0078 2.0078 3.25 4.7773 3.25 7.8398 0 3.0586-1.2422 5.8359-3.25 7.8398-2.0078 2.0078-4.7773 3.25-7.8398 3.25zm-4.5938-6.4961c1.1758 1.1719 2.8008 1.9023 4.5938 1.9023 1.793 0 3.418-0.73047 4.5938-1.9023 1.1758-1.1758 1.9023-2.8008 1.9023-4.5938 0-1.793-0.73047-3.418-1.9023-4.5938-1.1719-1.1758-2.8008-1.9023-4.5938-1.9023-1.793 0-3.418 0.72656-4.5938 1.9023-1.1758 1.1758-1.9023 2.8008-1.9023 4.5938 0 1.793 0.72656 3.418 1.9023 4.5938zm23.406 51.875h36.129c1.2695 0 2.2969 1.0273 2.2969 2.2969v10.332c0 1.2695-1.0273 2.2969-2.2969 2.2969s-2.2969-1.0273-2.2969-2.2969v-8.0352h-52.652c-11.258 0-21.445-4.5586-28.82-11.938-7.3789-7.3789-11.941-17.566-11.941-28.82 0-11.258 4.5625-21.445 11.941-28.82 7.3789-7.3789 17.566-11.938 28.82-11.938 11.258 0 21.445 4.5586 28.82 11.938 7.3789 7.3789 11.941 17.566 11.941 28.82 0 11.258-4.5625 21.445-11.941 28.82-2.9297 2.9297-6.3008 5.4102-10.004 7.3438z"/>
<text x="0.0" y="117.5" font-size="5.0" font-weight="bold" font-family="Arbeit Regular, Helvetica, Arial-Unicode, Arial, Sans-serif" fill="#000000"></text><text x="0.0" y="122.5" font-size="5.0" font-weight="bold" font-family="Arbeit Regular, Helvetica, Arial-Unicode, Arial, Sans-serif" fill="#000000"></text>
</svg>